<svg xmlns="http://www.w3.org/2000/svg" viewBox="0 0 24 24" fill="currentColor">
  <path d="M12 2C8.13 2 5 5.13 5 9c0 2.38 1.19 4.47 3 5.74V17c0 .55.45 1 1 1h6c.55 0 1-.45 1-1v-2.26c1.81-1.27 3-3.36 3-5.74 0-3.87-3.13-7-7-7z"/>
  <path d="M13 21v-1c0-.55-.45-1-1-1s-1 .45-1 1v1c0 .55.45 1 1 1s1-.45 1-1z"/>
  <path d="M9 20c0-1.1.9-2 2-2h2c1.1 0 2 .9 2 2v1H9v-1z" fill-opacity=".36"/>
  <path d="M12 3c-3.31 0-6 2.69-6 6 0 2.97 2.17 5.43 5 5.91v1.09h2v-1.09c2.83-.48 5-2.94 5-5.91 0-3.31-2.69-6-6-6z"/>
</svg>